<?xml version="1.0" standalone="no"?>
<!DOCTYPE svg PUBLIC "-//W3C//DTD SVG 20010904//EN"
 "http://www.w3.org/TR/2001/REC-SVG-20010904/DTD/svg10.dtd">
<svg version="1.0" xmlns="http://www.w3.org/2000/svg"
 width="512.000000pt" height="512.000000pt" viewBox="0 0 512.000000 512.000000"
 preserveAspectRatio="xMidYMid meet">
<metadata>
Created by potrace 1.14, written by Peter Selinger 2001-2017
</metadata>
<g transform="translate(0.000000,512.000000) scale(0.100000,-0.100000)"
fill="#000000" stroke="none">
<path d="M3282 4652 c-15 -15 -34 -41 -43 -58 -11 -20 -36 -40 -81 -61 -61
-29 -106 -72 -137 -130 -16 -30 -14 -85 5 -150 22 -77 15 -132 -34 -240 -23
-51 -44 -110 -48 -132 -8 -47 9 -101 43 -141 24 -30 26 -30 127 -30 56 0 125
-6 154 -14 l52 -13 0 70 c0 67 1 69 23 63 63 -17 95 -17 149 1 l56 19 28 -58
c19 -39 33 -57 42 -53 7 3 43 5 78 5 l64 0 0 43 c0 23 -7 83 -15 132 -19 117
-19 203 1 306 9 49 14 117 12 162 -4 90 -12 101 -83 112 -29 4 -45 11 -45 20
0 24 -111 130 -161 153 -30 15 -64 22 -103 22 -50 0 -61 -4 -84 -28z"/>
<path d="M1345 4264 c9 -18 15 -60 16 -114 1 -82 2 -83 10 -35 10 58 -4 147
-27 166 -12 10 -12 7 1 -17z"/>
<path d="M1352 4035 c0 -16 2 -22 5 -12 2 9 2 23 0 30 -3 6 -5 -1 -5 -18z"/>
<path d="M1342 3980 c0 -14 2 -19 5 -12 2 6 2 18 0 25 -3 6 -5 1 -5 -13z"/>
<path d="M1331 3938 c0 -10 -7 -37 -15 -60 -8 -24 -16 -61 -20 -83 -4 -28 2
-18 20 35 13 41 23 86 21 100 -2 14 -5 17 -6 8z"/>
<path d="M1277 3740 c-3 -8 -13 -43 -21 -78 -9 -35 -27 -92 -41 -126 -14 -34
-25 -67 -25 -72 0 -5 -15 -49 -34 -99 -19 -49 -47 -121 -61 -160 -15 -38 -39
-104 -54 -145 -15 -41 -35 -91 -44 -110 -22 -49 -78 -217 -82 -249 -2 -14 -11
-53 -20 -86 -9 -33 -18 -76 -21 -95 -2 -19 -10 -64 -16 -100 -15 -86 -17 -122
-17 -265 -1 -134 2 -170 18 -265 6 -36 13 -85 16 -109 3 -24 14 -71 25 -105
10 -33 26 -87 35 -118 8 -32 20 -58 25 -58 15 0 12 24 -9 78 -17 44 -34 111
-62 248 -17 87 -24 196 -23 369 2 240 25 380 103 630 29 92 79 225 89 238 5 7
21 50 37 97 15 47 34 99 43 115 8 17 19 44 23 60 4 17 35 111 69 209 33 99 59
187 57 195 -3 14 -5 14 -10 1z"/>
<path d="M3345 3358 c6 -231 7 -233 31 -255 16 -15 38 -23 60 -23 l34 0 -2
241 -3 241 -37 4 c-21 1 -46 8 -57 13 -11 6 -23 11 -26 11 -4 0 -4 -105 0
-232z"/>
<path d="M2887 3400 c12 -160 22 -211 16 -87 -3 65 -9 130 -14 145 -6 17 -7
-3 -2 -58z"/>
<path d="M3923 3473 c-9 -3 -13 -32 -13 -96 0 -49 2 -88 6 -85 3 3 8 47 12 97
4 50 8 91 7 90 0 0 -6 -3 -12 -6z"/>
<path d="M3550 3301 c-27 -51 -6 -170 49 -286 22 -44 47 -102 56 -129 19 -53
52 -74 132 -84 34 -4 46 0 65 20 24 24 30 56 53 282 l3 38 -46 -6 c-105 -15
-99 -10 -94 -72 4 -44 2 -53 -10 -49 -8 3 -20 29 -28 58 -41 164 -144 294
-180 228z"/>
<path d="M3188 3283 c-33 -35 -74 -117 -89 -177 -15 -60 -26 -66 -34 -17 l-6
39 -69 7 c-65 6 -69 9 -73 33 -2 15 -5 -2 -6 -38 -1 -59 10 -183 24 -268 12
-71 80 -91 165 -49 42 21 47 27 75 103 16 45 37 92 46 105 36 54 64 196 48
252 -12 46 -43 50 -81 10z"/>
<path d="M2677 2766 c-100 -61 -114 -102 -72 -208 30 -76 97 -161 149 -190 47
-27 154 -58 196 -58 49 0 101 -19 175 -64 33 -20 85 -44 115 -52 30 -8 68 -20
84 -26 49 -19 7 -34 -116 -42 -102 -7 -117 -10 -160 -37 -26 -17 -52 -28 -58
-24 -6 4 -17 1 -25 -5 -8 -7 -22 -9 -31 -6 -14 5 -16 21 -13 107 l4 101 -30 4
c-27 3 -819 173 -1257 269 -86 19 -163 35 -171 35 -8 0 -22 -25 -33 -62 -36
-117 -20 -294 31 -362 14 -18 75 -36 238 -68 32 -6 52 -15 45 -18 -7 -4 -87
-20 -177 -36 l-164 -29 -18 -40 c-24 -55 -38 -169 -29 -237 9 -63 36 -145 55
-166 6 -7 88 -30 181 -52 215 -49 483 -113 794 -188 464 -113 989 -235 1015
-235 14 0 760 298 929 372 76 33 147 68 157 77 23 21 24 40 3 52 -18 10 3 19
-699 -282 l-410 -175 -22 46 c-43 92 -40 242 9 354 14 35 27 49 46 54 15 3
135 38 267 76 583 171 803 243 812 266 3 7 -3 23 -12 33 -14 15 -15 20 -4 20
8 0 29 9 46 20 36 22 36 50 -1 50 -11 0 -259 -76 -550 -170 -292 -93 -535
-170 -542 -170 -22 0 -54 124 -54 209 0 74 16 156 38 198 11 20 14 20 58 7 72
-22 172 -37 198 -30 36 9 70 84 61 135 -6 35 -4 41 19 56 14 10 56 21 94 25
37 5 100 20 140 34 40 14 79 23 87 20 27 -11 114 27 170 73 66 54 79 92 73
201 -6 88 -25 119 -89 144 -63 24 -161 22 -307 -8 -117 -24 -134 -25 -213 -15
-48 6 -122 11 -165 11 -44 0 -94 4 -113 10 -18 5 -103 10 -187 11 -143 1 -156
-1 -184 -21 -35 -25 -52 -24 -174 9 -104 28 -160 27 -209 -3z"/>
<path d="M3880 2240 c0 -5 5 -10 10 -10 6 0 10 5 10 10 0 6 -4 10 -10 10 -5 0
-10 -4 -10 -10z"/>
<path d="M871 1461 c-41 -107 -41 -271 2 -363 14 -32 28 -58 32 -58 5 0 280
-62 340 -77 11 -2 29 -6 40 -9 11 -2 49 -10 85 -19 79 -19 110 -25 130 -27 8
0 20 -5 26 -10 6 -4 20 -5 29 -1 14 5 16 3 10 -7 -6 -10 -1 -12 26 -7 26 5 30
4 19 -4 -12 -9 -11 -10 8 -6 12 3 22 1 22 -5 0 -6 11 -7 25 -4 16 4 25 2 25
-5 0 -7 9 -9 26 -5 15 4 23 3 20 -3 -8 -12 58 -24 87 -16 14 4 17 3 10 -2 -13
-9 -6 -11 447 -118 129 -31 317 -76 417 -100 l181 -43 274 108 c518 205 778
313 810 339 23 19 19 51 -6 51 -8 0 -230 -92 -493 -204 -667 -285 -626 -268
-621 -248 1 4 -7 34 -17 67 -28 89 -25 210 7 302 l25 71 -26 7 c-14 4 -127 28
-251 55 -353 76 -1656 358 -1682 364 -11 2 -20 -5 -27 -23z"/>
</g>
</svg>
